# xmcd
#
# Track frame offsets: 
#        183
#        29195
#        54520
#        75028
#        91088
#        108925
#        128113
#        147538
#        165975
#
# Disc length: 2475 seconds
#
# Revision: 6
# Processed by: cddbd v1.5.2PL0 Copyright (c) Steve Scherf et al.
# Submitted via: ExactAudioCopyFreeDBPlugin 1.0
#
DISCID=6909a909
DTITLE=Quincy Jones - The Dude
DYEAR=1981
DGENRE=Funk
TTITLE0=Ai No Corrida
TTITLE1=The Dude
TTITLE2=Just Once
TTITLE3=Betcha' Wouldn't Hurt Me
TTITLE4=Somethin' Special
TTITLE5=Razzamatazz
TTITLE6=One Hundred Ways
TTITLE7=Velas
TTITLE8=Turn On The Action
EXTD=YEAR: 1981 ID3G: 4
EXTT0=
EXTT1=
EXTT2=
EXTT3=
EXTT4=
EXTT5=
EXTT6=
EXTT7=
EXTT8=
PLAYORDER=
